<svg width="25" height="25" viewBox="0 0 25 25" fill="none" xmlns="http://www.w3.org/2000/svg">
<path d="M21.0717 12.1094C20.8503 9.9761 19.9849 8.14969 18.4755 6.63019C16.966 5.11069 15.1447 4.26038 13.0113 4.07925V1C15.9899 1.22138 18.5258 2.37862 20.6189 4.4717C22.712 6.56478 23.8692 9.11069 24.0906 12.1094H21.0717ZM13.0113 25V21.9208C15.1447 21.7597 16.961 20.9195 18.4604 19.4C19.9597 17.8805 20.8302 16.0541 21.0717 13.9208H24.0906C23.8692 16.9195 22.717 19.4654 20.634 21.5585C18.5509 23.6516 16.0101 24.7987 13.0113 25ZM11.2 25C8.02013 24.7585 5.35849 23.4906 3.21509 21.1962C1.0717 18.9019 0 16.1748 0 13.0151C0 9.83522 1.0717 7.10314 3.21509 4.81887C5.35849 2.53459 8.02013 1.2717 11.2 1.03019V4.10943C8.88553 4.33082 6.9434 5.28679 5.37358 6.97736C3.80377 8.66792 3.01887 10.6805 3.01887 13.0151C3.01887 15.3497 3.80377 17.3673 5.37358 19.0679C6.9434 20.7686 8.88553 21.7195 11.2 21.9208V25Z" fill="black"/>
<path d="M12.966 12.514V8.923H11.256V12.514H7.646V14.224H11.256V17.834L12.966 17.815V14.224H16.538V12.514H12.966Z" fill="black"/>
</svg>
