<svg width="20" height="20" viewBox="0 0 20 20" fill="none" xmlns="http://www.w3.org/2000/svg">
<path d="M5.38889 15.6389C5.62963 15.6389 5.8287 15.5602 5.98611 15.4028C6.14352 15.2454 6.22222 15.0463 6.22222 14.8056V8.83333C6.22222 8.59259 6.14352 8.39352 5.98611 8.23611C5.8287 8.0787 5.62963 8 5.38889 8C5.14815 8 4.94907 8.0787 4.79167 8.23611C4.63426 8.39352 4.55556 8.59259 4.55556 8.83333V14.8056C4.55556 15.0463 4.63426 15.2454 4.79167 15.4028C4.94907 15.5602 5.14815 15.6389 5.38889 15.6389ZM10 15.6389C10.2407 15.6389 10.4398 15.5602 10.5972 15.4028C10.7546 15.2454 10.8333 15.0463 10.8333 14.8056V5.19445C10.8333 4.9537 10.7546 4.75463 10.5972 4.59722C10.4398 4.43982 10.2407 4.36111 10 4.36111C9.75926 4.36111 9.56019 4.43982 9.40278 4.59722C9.24537 4.75463 9.16667 4.9537 9.16667 5.19445V14.8056C9.16667 15.0463 9.24537 15.2454 9.40278 15.4028C9.56019 15.5602 9.75926 15.6389 10 15.6389ZM14.6111 15.6389C14.8519 15.6389 15.0509 15.5602 15.2083 15.4028C15.3657 15.2454 15.4444 15.0463 15.4444 14.8056V12.3611C15.4444 12.1204 15.3657 11.9213 15.2083 11.7639C15.0509 11.6065 14.8519 11.5278 14.6111 11.5278C14.3704 11.5278 14.1713 11.6065 14.0139 11.7639C13.8565 11.9213 13.7778 12.1204 13.7778 12.3611V14.8056C13.7778 15.0463 13.8565 15.2454 14.0139 15.4028C14.1713 15.5602 14.3704 15.6389 14.6111 15.6389ZM1.66667 20C1.22222 20 0.833333 19.8333 0.5 19.5C0.166667 19.1667 0 18.7778 0 18.3333V1.66667C0 1.22222 0.166667 0.833333 0.5 0.5C0.833333 0.166667 1.22222 0 1.66667 0H18.3333C18.7778 0 19.1667 0.166667 19.5 0.5C19.8333 0.833333 20 1.22222 20 1.66667V18.3333C20 18.7778 19.8333 19.1667 19.5 19.5C19.1667 19.8333 18.7778 20 18.3333 20H1.66667ZM1.66667 18.3333H18.3333V1.66667H1.66667V18.3333ZM1.66667 18.3333V1.66667V18.3333Z" fill="black"/>
</svg>
