<svg width="15" height="16" viewBox="0 0 15 16" fill="none" xmlns="http://www.w3.org/2000/svg">
<path d="M1.33333 16C0.96 16 0.644445 15.8711 0.386667 15.6133C0.128889 15.3556 0 15.04 0 14.6667V5.6C0 5.22667 0.128889 4.91111 0.386667 4.65333C0.644445 4.39556 0.96 4.26667 1.33333 4.26667C1.70667 4.26667 2.02222 4.39556 2.28 4.65333C2.53778 4.91111 2.66667 5.22667 2.66667 5.6V14.6667C2.66667 15.04 2.53778 15.3556 2.28 15.6133C2.02222 15.8711 1.70667 16 1.33333 16ZM7.46667 16C7.09333 16 6.77778 15.8711 6.52 15.6133C6.26222 15.3556 6.13333 15.04 6.13333 14.6667V1.33333C6.13333 0.96 6.26222 0.644445 6.52 0.386667C6.77778 0.128889 7.09333 0 7.46667 0C7.84 0 8.15556 0.128889 8.41333 0.386667C8.67111 0.644445 8.8 0.96 8.8 1.33333V14.6667C8.8 15.04 8.67111 15.3556 8.41333 15.6133C8.15556 15.8711 7.84 16 7.46667 16ZM13.6 16C13.2267 16 12.9111 15.8711 12.6533 15.6133C12.3956 15.3556 12.2667 15.04 12.2667 14.6667V9.86667C12.2667 9.49333 12.3956 9.17778 12.6533 8.92C12.9111 8.66222 13.2267 8.53333 13.6 8.53333C13.9733 8.53333 14.2889 8.66222 14.5467 8.92C14.8044 9.17778 14.9333 9.49333 14.9333 9.86667V14.6667C14.9333 15.04 14.8044 15.3556 14.5467 15.6133C14.2889 15.8711 13.9733 16 13.6 16Z" fill="#696969"/>
</svg>
