<svg width="31" height="34" viewBox="0 0 31 34" fill="none" xmlns="http://www.w3.org/2000/svg">
<path d="M1.1625 8.57727C0.826667 8.57727 0.548958 8.4678 0.329375 8.24886C0.109792 8.02992 0 7.75303 0 7.41818V1.93182C0 1.67424 0.0904166 1.4553 0.27125 1.275C0.452083 1.0947 0.684583 1.00455 0.96875 1.00455C1.25292 1.00455 1.47896 1.08826 1.64687 1.25568C1.81479 1.42311 1.89875 1.64848 1.89875 1.93182V4.94545C3.78458 3.32273 5.88354 2.0928 8.19562 1.25568C10.5077 0.418561 12.9167 0 15.4225 0C17.9283 0 20.3502 0.418561 22.6881 1.25568C25.026 2.0928 27.1508 3.32273 29.0625 4.94545V1.97045C29.0625 1.68712 29.1529 1.4553 29.3337 1.275C29.5146 1.0947 29.7471 1.00455 30.0312 1.00455C30.3154 1.00455 30.5479 1.0947 30.7288 1.275C30.9096 1.4553 31 1.68712 31 1.97045V7.41818C31 7.75303 30.8902 8.02992 30.6706 8.24886C30.451 8.4678 30.1733 8.57727 29.8375 8.57727H24.5288C24.2704 8.57727 24.0508 8.48712 23.87 8.30682C23.6892 8.12652 23.5987 7.8947 23.5987 7.61136C23.5987 7.32803 23.6892 7.10265 23.87 6.93523C24.0508 6.7678 24.2833 6.68409 24.5675 6.68409H28.2487C26.4662 5.13864 24.4771 3.92803 22.2812 3.05227C20.0854 2.17651 17.7992 1.73864 15.4225 1.73864C13.0717 1.73864 10.8112 2.17651 8.64125 3.05227C6.47125 3.92803 4.495 5.13864 2.7125 6.68409H6.4325C6.69083 6.68409 6.91042 6.7678 7.09125 6.93523C7.27208 7.10265 7.3625 7.32803 7.3625 7.61136C7.3625 7.8947 7.27854 8.12652 7.11062 8.30682C6.94271 8.48712 6.71667 8.57727 6.4325 8.57727H1.1625ZM13.2525 34C12.8133 34 12.4 33.9163 12.0125 33.7489C11.625 33.5814 11.2892 33.3561 11.005 33.0727L4.8825 26.9682C4.495 26.5818 4.2625 26.0087 4.185 25.2489C4.1075 24.489 4.27542 23.8258 4.68875 23.2591C5.12792 22.6667 5.63812 22.2674 6.21937 22.0614C6.80062 21.8553 7.33667 21.8167 7.8275 21.9455L10.85 22.6409V10.0455C10.85 8.96364 11.2246 8.04924 11.9738 7.30227C12.7229 6.5553 13.64 6.18182 14.725 6.18182C15.81 6.18182 16.7271 6.5553 17.4762 7.30227C18.2254 8.04924 18.6 8.96364 18.6 10.0455V16.6909H19.6075C19.7367 16.6909 19.8529 16.7167 19.9562 16.7682C20.0596 16.8197 20.1758 16.8712 20.305 16.9227L26.04 19.7045C26.66 19.9879 27.1185 20.4451 27.4156 21.0761C27.7127 21.7072 27.7967 22.3576 27.6675 23.0273L26.2725 31.45C26.1433 32.197 25.7817 32.8087 25.1875 33.2852C24.5933 33.7617 23.9217 34 23.1725 34H13.2525ZM12.9425 31.6818H23.8312L25.4975 22.0614L18.4062 18.5455H16.275V10.0455C16.275 9.58182 16.1329 9.20833 15.8488 8.925C15.5646 8.64167 15.19 8.5 14.725 8.5C14.26 8.5 13.8854 8.64167 13.6012 8.925C13.3171 9.20833 13.175 9.58182 13.175 10.0455V25.4614L7.2075 24.1864L6.31625 25.075L12.9425 31.6818ZM23.8312 31.6818H12.9425H13.175C13.175 31.6818 13.3171 31.6818 13.6012 31.6818C13.8854 31.6818 14.26 31.6818 14.725 31.6818C15.19 31.6818 15.5646 31.6818 15.8488 31.6818C16.1329 31.6818 16.275 31.6818 16.275 31.6818H18.4062H23.8312Z" fill="black"/>
</svg>
