<svg width="40" height="40" viewBox="0 0 40 40" fill="none" xmlns="http://www.w3.org/2000/svg">
<rect x="0.5" y="0.5" width="39" height="39" rx="5.5" fill="white" stroke="#E6E6E6"/>
<path fill-rule="evenodd" clip-rule="evenodd" d="M18.4286 8C18.1368 8.00015 17.8509 8.08107 17.6027 8.23368C17.3546 8.38628 17.1541 8.60456 17.0237 8.86406L15.886 11.125H10.5714C10.1547 11.125 9.75496 11.2896 9.46026 11.5826C9.16556 11.8757 9 12.2731 9 12.6875C9 13.1019 9.16556 13.4993 9.46026 13.7924C9.75496 14.0854 10.1547 14.25 10.5714 14.25V29.875C10.5714 30.7038 10.9025 31.4987 11.4919 32.0847C12.0813 32.6708 12.8807 33 13.7143 33H26.2857C27.1193 33 27.9186 32.6708 28.508 32.0847C29.0974 31.4987 29.4286 30.7038 29.4286 29.875V14.25C29.8453 14.25 30.245 14.0854 30.5397 13.7924C30.8344 13.4993 31 13.1019 31 12.6875C31 12.2731 30.8344 11.8757 30.5397 11.5826C30.245 11.2896 29.8453 11.125 29.4286 11.125H24.114L22.9763 8.86406C22.8459 8.60456 22.6454 8.38628 22.3973 8.23368C22.1491 8.08107 21.8632 8.00015 21.5714 8H18.4286ZM15.2857 17.375C15.2857 16.9606 15.4513 16.5632 15.746 16.2701C16.0407 15.9771 16.4404 15.8125 16.8571 15.8125C17.2739 15.8125 17.6736 15.9771 17.9683 16.2701C18.263 16.5632 18.4286 16.9606 18.4286 17.375V26.75C18.4286 27.1644 18.263 27.5618 17.9683 27.8549C17.6736 28.1479 17.2739 28.3125 16.8571 28.3125C16.4404 28.3125 16.0407 28.1479 15.746 27.8549C15.4513 27.5618 15.2857 27.1644 15.2857 26.75V17.375ZM23.1429 15.8125C22.7261 15.8125 22.3264 15.9771 22.0317 16.2701C21.737 16.5632 21.5714 16.9606 21.5714 17.375V26.75C21.5714 27.1644 21.737 27.5618 22.0317 27.8549C22.3264 28.1479 22.7261 28.3125 23.1429 28.3125C23.5596 28.3125 23.9593 28.1479 24.254 27.8549C24.5487 27.5618 24.7143 27.1644 24.7143 26.75V17.375C24.7143 16.9606 24.5487 16.5632 24.254 16.2701C23.9593 15.9771 23.5596 15.8125 23.1429 15.8125Z" fill="#696969"/>
</svg>
