<svg width="48" height="30" viewBox="0 0 48 30" fill="none" xmlns="http://www.w3.org/2000/svg">
<path d="M10.1786 30C8.53571 30 7.14286 29.4286 6 28.2857C4.85714 27.1429 4.28571 25.75 4.28571 24.1071H0V3.75C0 2.71429 0.366072 1.83036 1.09821 1.09821C1.83036 0.366071 2.71429 0 3.75 0H34.6071L47.1429 12.5357V24.1071H42.8571C42.8571 25.75 42.2857 27.1429 41.1429 28.2857C40 29.4286 38.6071 30 36.9643 30C35.3214 30 33.9286 29.4286 32.7857 28.2857C31.6429 27.1429 31.0714 25.75 31.0714 24.1071H16.0714C16.0714 25.75 15.5 27.1429 14.3571 28.2857C13.2143 29.4286 11.8214 30 10.1786 30ZM30 10.7143H40.3929L32.8929 3.21429H30V10.7143ZM16.6071 10.7143H26.7857V3.21429H16.6071V10.7143ZM3.21429 10.7143H13.3929V3.21429H3.21429V10.7143ZM10.1786 27.3214C11.0714 27.3214 11.8304 27.0089 12.4554 26.3839C13.0804 25.7589 13.3929 25 13.3929 24.1071C13.3929 23.2143 13.0804 22.4554 12.4554 21.8304C11.8304 21.2054 11.0714 20.8929 10.1786 20.8929C9.28571 20.8929 8.52679 21.2054 7.90179 21.8304C7.27679 22.4554 6.96429 23.2143 6.96429 24.1071C6.96429 25 7.27679 25.7589 7.90179 26.3839C8.52679 27.0089 9.28571 27.3214 10.1786 27.3214ZM36.9643 27.3214C37.8571 27.3214 38.6161 27.0089 39.2411 26.3839C39.8661 25.7589 40.1786 25 40.1786 24.1071C40.1786 23.2143 39.8661 22.4554 39.2411 21.8304C38.6161 21.2054 37.8571 20.8929 36.9643 20.8929C36.0714 20.8929 35.3125 21.2054 34.6875 21.8304C34.0625 22.4554 33.75 23.2143 33.75 24.1071C33.75 25 34.0625 25.7589 34.6875 26.3839C35.3125 27.0089 36.0714 27.3214 36.9643 27.3214ZM3.21429 20.8929H5.19643C5.80357 19.9643 6.5625 19.2857 7.47321 18.8571C8.38393 18.4286 9.28571 18.2143 10.1786 18.2143C11.0714 18.2143 11.9732 18.4286 12.8839 18.8571C13.7946 19.2857 14.5536 19.9643 15.1607 20.8929H31.9821C32.5893 19.9643 33.3482 19.2857 34.2589 18.8571C35.1696 18.4286 36.0714 18.2143 36.9643 18.2143C37.8571 18.2143 38.7589 18.4286 39.6696 18.8571C40.5804 19.2857 41.3393 19.9643 41.9464 20.8929H43.9286V13.9286H3.21429V20.8929ZM43.9286 13.9286H41.9464C41.3393 13.9286 40.5804 13.9286 39.6696 13.9286C38.7589 13.9286 37.8571 13.9286 36.9643 13.9286C36.0714 13.9286 35.1696 13.9286 34.2589 13.9286C33.3482 13.9286 32.5893 13.9286 31.9821 13.9286H15.1607C14.5536 13.9286 13.7946 13.9286 12.8839 13.9286C11.9732 13.9286 11.0714 13.9286 10.1786 13.9286C9.28571 13.9286 8.38393 13.9286 7.47321 13.9286C6.5625 13.9286 5.80357 13.9286 5.19643 13.9286H3.21429H43.9286Z" fill="#E68A00"/>
</svg>
