<svg width="40" height="40" viewBox="0 0 40 40" fill="none" xmlns="http://www.w3.org/2000/svg">
<rect x="0.5" y="0.5" width="39" height="39" rx="5.5" fill="white" stroke="#E6E6E6"/>
<path d="M16.9089 31.6842H10.5454C9.13271 31.6842 8 30.5132 8 29.0526V10.6316C8 9.17105 9.13271 8 10.5454 8H28.3633C29.776 8 30.9087 9.17105 30.9087 10.6316V17.6447C30.5268 17.4868 30.1069 17.3947 29.6869 17.3947C29.216 17.3947 28.7705 17.5 28.3633 17.6974V10.6316H10.5454V29.0526H17.0489L16.9089 29.1974V31.6842ZM13.0908 15.8947H25.8178V13.2632H13.0908V15.8947ZM13.0908 26.4211H19.5943L21.9997 23.9474V23.7895H13.0908V26.4211ZM13.0908 21.1579H24.6979L25.8178 20V18.5263H13.0908V21.1579ZM31.7996 21.9211L30.1705 20.2368C29.9032 19.9605 29.4578 19.9605 29.1905 20.2368L27.9178 21.5526L30.5268 24.25L31.7996 22.9342C32.0668 22.6579 32.0668 22.1974 31.7996 21.9211ZM19.4543 33H22.0761L29.776 25.0132L27.1669 22.3158L19.4543 30.2895V33Z" fill="#696969"/>
</svg>
