<svg width="40" height="40" viewBox="0 0 40 40" fill="none" xmlns="http://www.w3.org/2000/svg">
<rect x="0.5" y="0.5" width="39" height="39" rx="5.5" fill="white" stroke="#E6E6E6"/>
<path d="M31.8064 10.2754H20.6953V29.7198H31.8064C32.1905 29.7198 32.5009 29.4094 32.5009 29.0254V10.9698C32.5009 10.5858 32.1905 10.2754 31.8064 10.2754Z" fill="#4CAF50"/>
<path d="M25.5564 13.75H30.4175V15.8333H25.5564V13.75ZM25.5564 20.6944H30.4175V22.7778H25.5564V20.6944ZM25.5564 24.1667H30.4175V26.25H25.5564V24.1667ZM25.5564 17.2222H30.4175V19.3056H25.5564V17.2222ZM20.6953 13.75H24.1675V15.8333H20.6953V13.75ZM20.6953 20.6944H24.1675V22.7778H20.6953V20.6944ZM20.6953 24.1667H24.1675V26.25H20.6953V24.1667ZM20.6953 17.2222H24.1675V19.3056H20.6953V17.2222Z" fill="white"/>
<path d="M22.0833 32.5L7.5 29.7222V10.2778L22.0833 7.5V32.5Z" fill="#2E7D32"/>
<path d="M16.6176 24.8609L14.9433 21.6935C14.8794 21.5748 14.8141 21.3581 14.7461 21.0421H14.7204C14.6884 21.1914 14.6134 21.4178 14.4954 21.722L12.8141 24.8609H10.2051L13.3037 19.9991L10.4683 15.1387H13.1329L14.5224 18.0526C14.6308 18.2824 14.728 18.556 14.8141 18.8713H14.8419C14.8961 18.6831 14.9974 18.3991 15.1467 18.0241L16.6926 15.1387H19.1336L16.2176 19.9574L19.2148 24.8595H16.6176V24.8609Z" fill="white"/>
</svg>
