<svg width="33" height="34" viewBox="0 0 33 34" fill="none" xmlns="http://www.w3.org/2000/svg">
<path d="M19.5903 18.87V32.0167C19.5903 32.5833 19.4014 33.0556 19.0236 33.4333C18.6459 33.8111 18.1736 34 17.607 34H14.7736C14.207 34 13.7347 33.8111 13.357 33.4333C12.9792 33.0556 12.7903 32.5833 12.7903 32.0167V18.87L0.493629 3.23C-0.0352595 2.51222 -0.139148 1.79444 0.181963 1.07667C0.503074 0.358889 1.11696 0 2.02363 0H30.4136C31.2447 0 31.8397 0.358889 32.1986 1.07667C32.5575 1.79444 32.4725 2.49333 31.9436 3.17333L19.5903 18.87ZM16.1903 19.04L29.167 2.55H3.21363L16.1903 19.04Z" fill="black"/>
</svg>
