<svg width="19" height="16" viewBox="0 0 19 16" fill="none" xmlns="http://www.w3.org/2000/svg">
<path d="M10.5895 16C9.56725 16 8.59318 15.8148 7.66725 15.4444C6.74132 15.0741 5.90058 14.5481 5.14503 13.8667C5.0117 13.7481 4.93762 13.6 4.92281 13.4222C4.90799 13.2444 4.95984 13.0815 5.07836 12.9333C5.2117 12.7704 5.38577 12.7 5.60058 12.7222C5.8154 12.7444 6.00429 12.8296 6.16725 12.9778C6.78947 13.5111 7.47095 13.9259 8.2117 14.2222C8.95244 14.5185 9.74503 14.6667 10.5895 14.6667C12.4413 14.6667 14.0154 14.0148 15.3117 12.7111C16.608 11.4074 17.2561 9.82963 17.2561 7.97778C17.2561 6.12593 16.608 4.55556 15.3117 3.26667C14.0154 1.97778 12.4413 1.33333 10.5895 1.33333C8.69318 1.33333 7.10799 1.98889 5.83392 3.3C4.55984 4.61111 3.92281 6.28889 3.92281 8.33333L5.38947 6.86667C5.52281 6.73333 5.68207 6.66667 5.86725 6.66667C6.05244 6.66667 6.2117 6.73333 6.34503 6.86667C6.47836 7 6.54503 7.15926 6.54503 7.34444C6.54503 7.52963 6.47836 7.68889 6.34503 7.82222L3.74503 10.4222C3.6117 10.5556 3.45614 10.6222 3.27836 10.6222C3.10058 10.6222 2.94503 10.5556 2.8117 10.4222L0.189474 7.8C0.0561403 7.66667 -0.00682261 7.50741 0.000584796 7.32222C0.0079922 7.13704 0.0783626 6.97778 0.211696 6.84444C0.345029 6.71111 0.504288 6.64444 0.689474 6.64444C0.874659 6.64444 1.03392 6.71111 1.16725 6.84444L2.58947 8.28889C2.58947 7.1037 2.79688 6.0037 3.2117 4.98889C3.62651 3.97407 4.19318 3.0963 4.9117 2.35556C5.63021 1.61481 6.47836 1.03704 7.45614 0.622222C8.43392 0.207407 9.47836 0 10.5895 0C11.7006 0 12.7413 0.211111 13.7117 0.633333C14.6821 1.05556 15.5265 1.62593 16.245 2.34444C16.9635 3.06296 17.5339 3.90741 17.9561 4.87778C18.3784 5.84815 18.5895 6.88889 18.5895 8C18.5895 9.11111 18.3784 10.1519 17.9561 11.1222C17.5339 12.0926 16.9635 12.937 16.245 13.6556C15.5265 14.3741 14.6821 14.9444 13.7117 15.3667C12.7413 15.7889 11.7006 16 10.5895 16ZM11.1895 7.68889L13.745 10.2C13.8784 10.3333 13.945 10.4926 13.945 10.6778C13.945 10.863 13.8784 11.0222 13.745 11.1556C13.6117 11.2889 13.4561 11.3556 13.2784 11.3556C13.1006 11.3556 12.945 11.2889 12.8117 11.1556L10.0561 8.44444C9.98207 8.37037 9.93021 8.29259 9.90059 8.21111C9.87096 8.12963 9.85614 8.04444 9.85614 7.95556V4.15556C9.85614 3.96296 9.9191 3.8037 10.045 3.67778C10.171 3.55185 10.3302 3.48889 10.5228 3.48889C10.7154 3.48889 10.8747 3.55185 11.0006 3.67778C11.1265 3.8037 11.1895 3.96296 11.1895 4.15556V7.68889Z" fill="#696969"/>
</svg>
