<svg width="20" height="24" viewBox="0 0 20 24" fill="none" xmlns="http://www.w3.org/2000/svg">
<path d="M4.68 22.2H14.52V18.39C14.52 16.99 14.045 15.785 13.095 14.775C12.145 13.765 10.98 13.26 9.6 13.26C8.22 13.26 7.055 13.765 6.105 14.775C5.155 15.785 4.68 16.99 4.68 18.39V22.2ZM9.6 10.74C10.98 10.74 12.145 10.235 13.095 9.225C14.045 8.215 14.52 7 14.52 5.58V1.8H4.68V5.58C4.68 7 5.155 8.215 6.105 9.225C7.055 10.235 8.22 10.74 9.6 10.74ZM18.3 24H0.9C0.64 24 0.425 23.915 0.255 23.745C0.0850001 23.575 0 23.36 0 23.1C0 22.84 0.0850001 22.625 0.255 22.455C0.425 22.285 0.64 22.2 0.9 22.2H2.88V18.39C2.88 16.99 3.245 15.705 3.975 14.535C4.705 13.365 5.72 12.52 7.02 12C5.72 11.48 4.705 10.63 3.975 9.45C3.245 8.27 2.88 6.98 2.88 5.58V1.8H0.9C0.64 1.8 0.425 1.715 0.255 1.545C0.0850001 1.375 0 1.16 0 0.9C0 0.64 0.0850001 0.425 0.255 0.255C0.425 0.0850001 0.64 0 0.9 0H18.3C18.56 0 18.775 0.0850001 18.945 0.255C19.115 0.425 19.2 0.64 19.2 0.9C19.2 1.16 19.115 1.375 18.945 1.545C18.775 1.715 18.56 1.8 18.3 1.8H16.32V5.58C16.32 6.98 15.95 8.27 15.21 9.45C14.47 10.63 13.46 11.48 12.18 12C13.48 12.52 14.495 13.365 15.225 14.535C15.955 15.705 16.32 16.99 16.32 18.39V22.2H18.3C18.56 22.2 18.775 22.285 18.945 22.455C19.115 22.625 19.2 22.84 19.2 23.1C19.2 23.36 19.115 23.575 18.945 23.745C18.775 23.915 18.56 24 18.3 24Z" fill="#696969"/>
</svg>
