<svg width="22" height="20" viewBox="0 0 22 20" fill="none" xmlns="http://www.w3.org/2000/svg">
<path d="M10 20C8.58333 20 7.26667 19.7458 6.05 19.2375C4.83333 18.7292 3.775 18.025 2.875 17.125C1.975 16.225 1.27083 15.1667 0.7625 13.95C0.254167 12.7333 0 11.4167 0 10C0 8.6 0.254167 7.29167 0.7625 6.075C1.27083 4.85833 1.975 3.8 2.875 2.9C3.775 2 4.83333 1.29167 6.05 0.775C7.26667 0.258333 8.58333 0 10 0C11.4 0 12.7083 0.258333 13.925 0.775C15.1417 1.29167 16.2 2 17.1 2.9C18 3.8 18.7083 4.85833 19.225 6.075C19.7417 7.29167 20 8.6 20 10C20 10.1333 19.9958 10.2667 19.9875 10.4C19.9792 10.5333 19.9667 10.6667 19.95 10.8C19.7333 10.6667 19.4958 10.525 19.2375 10.375C18.9792 10.225 18.7333 10.1 18.5 10C18.5 7.58333 17.6875 5.5625 16.0625 3.9375C14.4375 2.3125 12.4167 1.5 10 1.5C8.9 1.5 7.875 1.67917 6.925 2.0375C5.975 2.39583 5.15 2.88333 4.45 3.5L11.275 10.325C11.0583 10.425 10.85 10.5333 10.65 10.65C10.45 10.7667 10.25 10.8917 10.05 11.025L3.475 4.45C2.85833 5.16667 2.375 6 2.025 6.95C1.675 7.9 1.5 8.91667 1.5 10C1.5 12.0833 2.12083 13.8875 3.3625 15.4125C4.60417 16.9375 6.2 17.9 8.15 18.3C8.4 18.5833 8.69167 18.8833 9.025 19.2C9.35833 19.5167 9.68333 19.7833 10 20ZM15 18.5C16.0667 18.5 17.075 18.2292 18.025 17.6875C18.975 17.1458 19.75 16.4167 20.35 15.5C19.75 14.5833 18.975 13.8542 18.025 13.3125C17.075 12.7708 16.0667 12.5 15 12.5C13.9333 12.5 12.925 12.7708 11.975 13.3125C11.025 13.8542 10.25 14.5833 9.65 15.5C10.25 16.4167 11.025 17.1458 11.975 17.6875C12.925 18.2292 13.9333 18.5 15 18.5ZM15 20C13.4 20 11.9708 19.5792 10.7125 18.7375C9.45417 17.8958 8.55 16.8167 8 15.5C8.55 14.1833 9.45417 13.1042 10.7125 12.2625C11.9708 11.4208 13.4 11 15 11C16.6 11 18.0292 11.4208 19.2875 12.2625C20.5458 13.1042 21.45 14.1833 22 15.5C21.45 16.8167 20.5458 17.8958 19.2875 18.7375C18.0292 19.5792 16.6 20 15 20ZM15 17C14.5833 17 14.2292 16.8542 13.9375 16.5625C13.6458 16.2708 13.5 15.9167 13.5 15.5C13.5 15.0833 13.6458 14.7292 13.9375 14.4375C14.2292 14.1458 14.5833 14 15 14C15.4167 14 15.7708 14.1458 16.0625 14.4375C16.3542 14.7292 16.5 15.0833 16.5 15.5C16.5 15.9167 16.3542 16.2708 16.0625 16.5625C15.7708 16.8542 15.4167 17 15 17Z" fill="black"/>
</svg>
