<svg width="20" height="20" viewBox="0 0 20 20" fill="none" xmlns="http://www.w3.org/2000/svg">
<circle cx="10" cy="10" r="9.75" fill="#FCFCFC" stroke="black" stroke-width="0.5"/>
<path d="M9.475 8.355V5.065L8.005 6.535L7.235 5.765L10 3L12.765 5.765L11.995 6.535L10.525 5.065V8.355H9.475ZM10 17L7.1475 14.1475L7.9175 13.3775L9.475 14.935V11.6275H10.525V14.935L12.0825 13.3775L12.8525 14.1475L10 17ZM14.235 12.765L13.465 11.995L14.935 10.525H11.645V9.475H14.935L13.465 8.005L14.235 7.235L17 10L14.235 12.765ZM5.765 12.765L3 10L5.7825 7.2175L6.5525 7.9875L5.065 9.475H8.3725V10.525H5.065L6.535 11.995L5.765 12.765Z" fill="black"/>
</svg>
