<svg width="20" height="20" viewBox="0 0 20 20" fill="none" xmlns="http://www.w3.org/2000/svg">
<path d="M1.44058 16.8067V4.96999C1.44058 7.69108 1.44058 9.81993 1.44058 11.3565C1.44058 12.8932 1.44058 14.0456 1.44058 14.8139C1.44058 15.5822 1.44058 16.0784 1.44058 16.3025C1.44058 16.5266 1.44058 16.6947 1.44058 16.8067ZM1.44058 18.2473C1.05642 18.2473 0.720288 18.1032 0.432173 17.8151C0.144058 17.527 0 17.1909 0 16.8067V4.96999C0 4.58583 0.144058 4.2497 0.432173 3.96158C0.720288 3.67347 1.05642 3.52941 1.44058 3.52941H6.0024V1.44058C6.0024 1.07243 6.14646 0.740296 6.43457 0.444178C6.72269 0.148059 7.05882 0 7.44298 0H11.7647C12.1489 0 12.485 0.148059 12.7731 0.444178C13.0612 0.740296 13.2053 1.07243 13.2053 1.44058V3.52941H17.7671C18.1513 3.52941 18.4874 3.67347 18.7755 3.96158C19.0636 4.2497 19.2077 4.58583 19.2077 4.96999V10.6843C18.9836 10.5082 18.7555 10.3481 18.5234 10.2041C18.2913 10.06 18.0392 9.92397 17.7671 9.79592V4.96999H1.44058V16.8067C1.44058 16.8067 1.44058 16.8107 1.44058 16.8187C1.44058 16.8267 1.44058 16.8227 1.44058 16.8067H9.45978C9.52381 17.0628 9.60384 17.3109 9.69988 17.551C9.79592 17.7911 9.90796 18.0232 10.036 18.2473H1.44058ZM7.44298 3.52941H11.7647V1.44058H7.44298V3.52941ZM15.3661 20C14.1016 20 13.0132 19.5438 12.1008 18.6315C11.1885 17.7191 10.7323 16.6307 10.7323 15.3661C10.7323 14.1016 11.1885 13.0132 12.1008 12.1008C13.0132 11.1885 14.1016 10.7323 15.3661 10.7323C16.6307 10.7323 17.7191 11.1885 18.6315 12.1008C19.5438 13.0132 20 14.1016 20 15.3661C20 16.6307 19.5438 17.7191 18.6315 18.6315C17.7191 19.5438 16.6307 20 15.3661 20ZM17.1429 17.7911L17.7911 17.1429L15.7743 15.3181V12.3409H14.7659V15.6062L17.1429 17.7911Z" fill="black"/>
</svg>
