<svg width="24" height="24" viewBox="0 0 24 24" fill="none" xmlns="http://www.w3.org/2000/svg">
<path fill-rule="evenodd" clip-rule="evenodd" d="M8.3432 0.612843C4.22913 2.08191 1.60761 4.84516 0.404783 8.97982C-0.719267 12.8442 0.555893 17.5978 3.50804 20.5484C8.11293 25.1505 15.9207 25.1505 20.5256 20.5484C23.9788 17.097 24.9956 11.4569 22.9521 7.09059C20.3578 1.54781 13.8301 -1.3468 8.3432 0.612843ZM16.9092 2.84956C20.579 4.72555 23.0002 9.20126 22.4771 13.1425C22.1355 15.7188 20.4142 18.814 18.5206 20.2573C12.5095 24.8398 4.05075 22.0557 1.9405 14.8004C1.17018 12.153 1.43302 9.89927 2.83088 7.16024C5.46111 2.0062 11.5889 0.129841 16.9092 2.84956ZM5.57852 12.044C5.57852 12.7715 5.83113 12.8011 12.0168 12.8011C18.2025 12.8011 18.4551 12.7715 18.4551 12.044C18.4551 11.3165 18.2025 11.287 12.0168 11.287C5.83113 11.287 5.57852 11.3165 5.57852 12.044Z" fill="#C4C4C4"/>
</svg>
