<svg width="47" height="59" viewBox="0 0 47 59" fill="none" xmlns="http://www.w3.org/2000/svg">
<path d="M13.8797 46.4625H33.1203C33.7568 46.4625 34.2831 46.2535 34.6992 45.8356C35.1154 45.4177 35.3234 44.8892 35.3234 44.25C35.3234 43.6108 35.1154 43.0823 34.6992 42.6644C34.2831 42.2465 33.7568 42.0375 33.1203 42.0375H13.8797C13.2432 42.0375 12.7169 42.2465 12.3008 42.6644C11.8846 43.0823 11.6766 43.6108 11.6766 44.25C11.6766 44.8892 11.8846 45.4177 12.3008 45.8356C12.7169 46.2535 13.2432 46.4625 13.8797 46.4625ZM13.8797 33.925H33.1203C33.7568 33.925 34.2831 33.716 34.6992 33.2981C35.1154 32.8802 35.3234 32.3517 35.3234 31.7125C35.3234 31.0733 35.1154 30.5448 34.6992 30.1269C34.2831 29.709 33.7568 29.5 33.1203 29.5H13.8797C13.2432 29.5 12.7169 29.709 12.3008 30.1269C11.8846 30.5448 11.6766 31.0733 11.6766 31.7125C11.6766 32.3517 11.8846 32.8802 12.3008 33.2981C12.7169 33.716 13.2432 33.925 13.8797 33.925ZM4.40625 59C3.23125 59 2.20312 58.5575 1.32187 57.6725C0.440624 56.7875 0 55.755 0 54.575V4.425C0 3.245 0.440624 2.2125 1.32187 1.3275C2.20312 0.4425 3.23125 0 4.40625 0H29.0812C29.6687 0 30.2318 0.110625 30.7703 0.331875C31.3089 0.553125 31.7984 0.885 32.2391 1.3275L45.6781 14.8238C46.1187 15.2663 46.4492 15.7579 46.6695 16.2987C46.8898 16.8396 47 17.405 47 17.995V54.575C47 55.755 46.5594 56.7875 45.6781 57.6725C44.7969 58.5575 43.7687 59 42.5938 59H4.40625ZM28.7141 4.425H4.40625V54.575H42.5938V18.1425H30.9172C30.2807 18.1425 29.7544 17.9335 29.3383 17.5156C28.9221 17.0977 28.7141 16.5692 28.7141 15.93V4.425ZM4.40625 4.425V15.93C4.40625 16.5692 4.40625 17.0977 4.40625 17.5156C4.40625 17.9335 4.40625 18.1425 4.40625 18.1425V4.425V15.93C4.40625 16.5692 4.40625 17.0977 4.40625 17.5156C4.40625 17.9335 4.40625 18.1425 4.40625 18.1425V54.575V4.425Z" fill="black"/>
</svg>
