<svg width="25" height="24" viewBox="0 0 25 24" fill="none" xmlns="http://www.w3.org/2000/svg">
<path d="M13.2663 0C16.1407 0.281407 18.5829 1.42714 20.593 3.43719C22.603 5.44724 23.7487 7.88945 24.0301 10.7638H15.4673C15.3065 10.2412 15.0301 9.79899 14.6382 9.43718C14.2462 9.07538 13.7889 8.81407 13.2663 8.65327V0ZM15.0754 2.29146V7.53769C15.3568 7.71859 15.6281 7.92462 15.8894 8.15578C16.1508 8.38693 16.3618 8.65327 16.5226 8.95477H21.7387C21.2362 7.34673 20.402 5.95477 19.2362 4.77889C18.0704 3.60301 16.6834 2.77387 15.0754 2.29146ZM10.794 0V8.65327C10.0905 8.93467 9.52261 9.38693 9.09045 10.01C8.65829 10.6332 8.44221 11.3266 8.44221 12.0905C8.44221 12.8141 8.65829 13.4673 9.09045 14.0502C9.52261 14.6332 10.0905 15.0553 10.794 15.3166V24C7.71859 23.7186 5.15075 22.4422 3.09045 20.1709C1.03015 17.8995 0 15.206 0 12.0905C0 8.97487 1.02513 6.25628 3.07538 3.93467C5.12563 1.61307 7.69849 0.301508 10.794 0ZM8.98492 2.29146C6.79397 2.89447 5.05025 4.11055 3.75377 5.9397C2.45729 7.76884 1.80905 9.81909 1.80905 12.0905C1.80905 14.3216 2.47236 16.3266 3.79899 18.1055C5.12563 19.8844 6.85427 21.0955 8.98492 21.7387V16.4925C8.24121 15.9899 7.66332 15.3568 7.25126 14.593C6.8392 13.8291 6.63316 12.995 6.63316 12.0905C6.63316 11.1859 6.83417 10.3317 7.23618 9.52764C7.63819 8.72362 8.2211 8.0603 8.98492 7.53769V2.29146ZM15.4673 13.2362H24.0301C23.7487 16.1105 22.603 18.5528 20.593 20.5628C18.5829 22.5729 16.1407 23.7186 13.2663 24V15.3166C13.7889 15.1558 14.2462 14.8995 14.6382 14.5477C15.0301 14.196 15.3065 13.7588 15.4673 13.2362ZM16.5226 15.0452C16.3216 15.3266 16.1055 15.598 15.8744 15.8593C15.6432 16.1206 15.3769 16.3317 15.0754 16.4925V21.7085C16.6834 21.2462 18.0704 20.4221 19.2362 19.2362C20.402 18.0502 21.2362 16.6533 21.7387 15.0452H16.5226Z" fill="black"/>
</svg>
