<svg width="20" height="20" viewBox="0 0 20 20" fill="none" xmlns="http://www.w3.org/2000/svg">
<path d="M1.66667 20C1.22222 20 0.833333 19.8333 0.5 19.5C0.166667 19.1667 0 18.7778 0 18.3333V1.66667C0 1.22222 0.166667 0.833333 0.5 0.5C0.833333 0.166667 1.22222 0 1.66667 0H18.3333C18.7778 0 19.1667 0.166667 19.5 0.5C19.8333 0.833333 20 1.22222 20 1.66667V18.3333C20 18.7778 19.8333 19.1667 19.5 19.5C19.1667 19.8333 18.7778 20 18.3333 20H1.66667ZM1.66667 18.3333H18.3333V1.66667H1.66667V18.3333ZM5 15.3889C5.22222 15.3889 5.41667 15.3056 5.58333 15.1389C5.75 14.9722 5.83333 14.7778 5.83333 14.5556C5.83333 14.3333 5.75 14.1389 5.58333 13.9722C5.41667 13.8056 5.22222 13.7222 5 13.7222C4.77778 13.7222 4.58333 13.8056 4.41667 13.9722C4.25 14.1389 4.16667 14.3333 4.16667 14.5556C4.16667 14.7778 4.25 14.9722 4.41667 15.1389C4.58333 15.3056 4.77778 15.3889 5 15.3889ZM5 10.8333C5.22222 10.8333 5.41667 10.75 5.58333 10.5833C5.75 10.4167 5.83333 10.2222 5.83333 10C5.83333 9.77778 5.75 9.58333 5.58333 9.41667C5.41667 9.25 5.22222 9.16667 5 9.16667C4.77778 9.16667 4.58333 9.25 4.41667 9.41667C4.25 9.58333 4.16667 9.77778 4.16667 10C4.16667 10.2222 4.25 10.4167 4.41667 10.5833C4.58333 10.75 4.77778 10.8333 5 10.8333ZM5 6.27778C5.22222 6.27778 5.41667 6.19445 5.58333 6.02778C5.75 5.86111 5.83333 5.66667 5.83333 5.44444C5.83333 5.22222 5.75 5.02778 5.58333 4.86111C5.41667 4.69444 5.22222 4.61111 5 4.61111C4.77778 4.61111 4.58333 4.69444 4.41667 4.86111C4.25 5.02778 4.16667 5.22222 4.16667 5.44444C4.16667 5.66667 4.25 5.86111 4.41667 6.02778C4.58333 6.19445 4.77778 6.27778 5 6.27778ZM9.5 15.3889H14.6111C14.8519 15.3889 15.0509 15.3102 15.2083 15.1528C15.3657 14.9954 15.4444 14.7963 15.4444 14.5556C15.4444 14.3148 15.3657 14.1157 15.2083 13.9583C15.0509 13.8009 14.8519 13.7222 14.6111 13.7222H9.5C9.25926 13.7222 9.06019 13.8009 8.90278 13.9583C8.74537 14.1157 8.66667 14.3148 8.66667 14.5556C8.66667 14.7963 8.74537 14.9954 8.90278 15.1528C9.06019 15.3102 9.25926 15.3889 9.5 15.3889ZM9.5 10.8333H14.6111C14.8519 10.8333 15.0509 10.7546 15.2083 10.5972C15.3657 10.4398 15.4444 10.2407 15.4444 10C15.4444 9.75926 15.3657 9.56019 15.2083 9.40278C15.0509 9.24537 14.8519 9.16667 14.6111 9.16667H9.5C9.25926 9.16667 9.06019 9.24537 8.90278 9.40278C8.74537 9.56019 8.66667 9.75926 8.66667 10C8.66667 10.2407 8.74537 10.4398 8.90278 10.5972C9.06019 10.7546 9.25926 10.8333 9.5 10.8333ZM9.5 6.27778H14.6111C14.8519 6.27778 15.0509 6.19907 15.2083 6.04167C15.3657 5.88426 15.4444 5.68519 15.4444 5.44444C15.4444 5.2037 15.3657 5.00463 15.2083 4.84722C15.0509 4.68982 14.8519 4.61111 14.6111 4.61111H9.5C9.25926 4.61111 9.06019 4.68982 8.90278 4.84722C8.74537 5.00463 8.66667 5.2037 8.66667 5.44444C8.66667 5.68519 8.74537 5.88426 8.90278 6.04167C9.06019 6.19907 9.25926 6.27778 9.5 6.27778ZM1.66667 18.3333V1.66667V18.3333Z" fill="black"/>
</svg>
