<svg width="20" height="16" viewBox="0 0 20 16" fill="none" xmlns="http://www.w3.org/2000/svg">
<path d="M4.775 8.25C4.975 8.25 5.14583 8.17917 5.2875 8.0375C5.42917 7.89583 5.5 7.71667 5.5 7.5C5.5 7.28333 5.42917 7.10417 5.2875 6.9625C5.14583 6.82083 4.96667 6.75 4.75 6.75C4.53333 6.75 4.35417 6.82083 4.2125 6.9625C4.07083 7.10417 4 7.28333 4 7.5C4 7.71667 4.075 7.89583 4.225 8.0375C4.375 8.17917 4.55833 8.25 4.775 8.25ZM4.75 11.25H12.25C12.4667 11.25 12.6458 11.1792 12.7875 11.0375C12.9292 10.8958 13 10.7167 13 10.5C13 10.2833 12.9292 10.1042 12.7875 9.9625C12.6458 9.82083 12.4667 9.75 12.25 9.75H4.75C4.53333 9.75 4.35417 9.82083 4.2125 9.9625C4.07083 10.1042 4 10.2833 4 10.5C4 10.7167 4.07083 10.8958 4.2125 11.0375C4.35417 11.1792 4.53333 11.25 4.75 11.25ZM15.275 11.25C15.475 11.25 15.6458 11.1792 15.7875 11.0375C15.9292 10.8958 16 10.7167 16 10.5C16 10.2833 15.925 10.1042 15.775 9.9625C15.625 9.82083 15.45 9.75 15.25 9.75C15.0333 9.75 14.8542 9.82083 14.7125 9.9625C14.5708 10.1042 14.5 10.2833 14.5 10.5C14.5 10.7167 14.575 10.8958 14.725 11.0375C14.875 11.1792 15.0583 11.25 15.275 11.25ZM7.75 8.25H15.25C15.4667 8.25 15.6458 8.17917 15.7875 8.0375C15.9292 7.89583 16 7.71667 16 7.5C16 7.28333 15.9292 7.10417 15.7875 6.9625C15.6458 6.82083 15.4667 6.75 15.25 6.75H7.75C7.53333 6.75 7.35417 6.82083 7.2125 6.9625C7.07083 7.10417 7 7.28333 7 7.5C7 7.71667 7.07083 7.89583 7.2125 8.0375C7.35417 8.17917 7.53333 8.25 7.75 8.25ZM1.5 16C1.1 16 0.75 15.85 0.45 15.55C0.15 15.25 0 14.9 0 14.5V1.5C0 1.1 0.15 0.75 0.45 0.45C0.75 0.15 1.1 0 1.5 0H18.5C18.9167 0 19.2708 0.15 19.5625 0.45C19.8542 0.75 20 1.1 20 1.5V14.5C20 14.9 19.8542 15.25 19.5625 15.55C19.2708 15.85 18.9167 16 18.5 16H1.5ZM1.5 14.5V1.5V14.5ZM1.5 14.5H18.5V1.5H1.5V14.5Z" fill="#696969"/>
</svg>
