<svg width="63" height="49" viewBox="0 0 63 49" fill="none" xmlns="http://www.w3.org/2000/svg">
<path fill-rule="evenodd" clip-rule="evenodd" d="M8.01345 1.34575C1.73275 4.07323 -1.54091 11.5892 0.711537 18.1101C2.48323 23.2405 9.51954 32.4807 14.9973 36.8728C18.4387 39.6311 20.1754 40.315 23.4151 40.1856C26.4458 40.0655 28.3009 40.6981 30.6202 42.6451C33.1311 44.7533 34.456 45.1508 37.3848 44.6763C40.2415 44.2142 41.8505 44.6568 44.8452 46.726C46.9453 48.1781 49.1422 49.0705 49.7269 48.71C51.758 47.4572 60.2026 35.8449 61.7252 32.2106C62.944 29.2993 63.0254 27.7056 62.1246 24.3681C59.2009 13.5373 46.7137 10.3353 38.9454 18.4233C36.309 21.1693 35.9157 22.3451 35.9157 27.4961C35.9157 32.3688 36.415 34.0663 38.7467 37.1152C40.3043 39.1515 41.5777 41.0801 41.5777 41.3994C41.5777 41.7198 39.8709 41.9817 37.7832 41.9817C35.2662 41.9817 33.1599 41.2043 31.5231 39.6711C29.5805 37.8504 28.0095 37.4058 24.112 37.5721C20.4832 37.7272 18.7249 37.2969 17.5081 35.9548C15.9649 34.2542 16.142 33.7387 20.0457 28.5548C22.3537 25.4905 24.9006 21.7361 25.7036 20.2112C29.0009 13.9542 26.2276 5.14225 19.8954 1.75446C15.7735 -0.450318 12.4174 -0.566359 8.01345 1.34575ZM20.3103 5.06831C23.6807 7.71261 25.6439 13.7899 24.2726 17.3358C23.726 18.7478 21.1122 22.8339 18.4634 26.4158L13.6466 32.9295L9.51439 27.4427C1.10067 16.275 0.380053 12.0154 5.95866 6.45053C10.2052 2.21452 15.967 1.65999 20.3103 5.06831ZM8.63524 8.09359C7.49152 9.23449 6.57633 11.5163 6.57633 13.2282C6.57633 19.9513 14.7389 22.9314 18.8546 17.7106C21.6393 14.1801 21.5569 11.0377 18.6065 8.27227C15.6283 5.48215 11.3303 5.40514 8.63524 8.09359ZM15.9094 9.15645C18.6755 10.6331 18.588 15.8694 15.7724 17.3728C14.1171 18.2559 13.0876 18.145 11.1399 16.8716C8.01654 14.8301 7.92491 11.7874 10.9237 9.69249C13.6384 7.79579 13.4057 7.82043 15.9094 9.15645ZM56.0755 19.1658C58.4937 21.3212 59.4079 23.1512 59.7991 26.6129C60.2757 30.8264 59.9205 31.7475 55.4527 37.8751C52.7761 41.5463 50.2365 44.932 49.8082 45.4013C48.8405 46.4621 39.8071 34.897 38.3514 30.7319C34.7833 20.5213 47.9531 11.9271 56.0755 19.1658ZM44.105 21.9107C41.0177 24.9894 40.9096 27.5074 43.7118 31.0605C47.8121 36.2618 55.9901 33.3033 55.9901 26.6181C55.9901 22.9961 52.5321 19.3896 49.0577 19.3896C47.7236 19.3896 45.4948 20.5244 44.105 21.9107ZM53.087 25.0335C54.0547 27.151 53.9332 27.9541 52.3911 29.6546C49.0052 33.3864 44.6661 31.6386 44.6661 26.5441C44.6661 23.1112 45.3445 22.4704 48.9774 22.4704C51.1125 22.4704 52.2367 23.1717 53.087 25.0335Z" fill="black"/>
</svg>
