<svg width="32" height="24" viewBox="0 0 32 24" fill="none" xmlns="http://www.w3.org/2000/svg">
<path fill-rule="evenodd" clip-rule="evenodd" d="M4.51338 0.661981C1.42388 2.00364 -0.186445 5.70078 0.921541 8.90843C1.79304 11.4321 5.25423 15.9774 7.94875 18.1379C9.64162 19.4947 10.4959 19.8311 12.0895 19.7675C13.5803 19.7084 14.4929 20.0195 15.6338 20.9773C16.8688 22.0143 17.5206 22.2098 18.9613 21.9765C20.3665 21.7491 21.158 21.9669 22.6311 22.9847C23.6641 23.699 24.7448 24.138 25.0324 23.9607C26.0315 23.3444 30.1854 17.6322 30.9344 15.8445C31.534 14.4125 31.574 13.6285 31.1309 11.9868C29.6927 6.65903 23.5502 5.084 19.7289 9.0625C18.4321 10.4132 18.2386 10.9916 18.2386 13.5254C18.2386 15.9223 18.4842 16.7573 19.6312 18.2571C20.3974 19.2588 21.0238 20.2075 21.0238 20.3646C21.0238 20.5222 20.1842 20.651 19.1572 20.651C17.9191 20.651 16.883 20.2686 16.0779 19.5144C15.1223 18.6188 14.3495 18.4001 12.4323 18.4819C10.6473 18.5582 9.78239 18.3465 9.18384 17.6863C8.42476 16.8498 8.51185 16.5962 10.4321 14.0462C11.5674 12.5389 12.8202 10.6921 13.2152 9.94195C14.8372 6.86412 13.473 2.52949 10.3582 0.863027C8.33057 -0.221513 6.67973 -0.278594 4.51338 0.661981ZM10.5622 2.49312C12.2202 3.79386 13.1859 6.7833 12.5113 8.52755C12.2424 9.22212 10.9567 11.2321 9.65377 12.994L7.28436 16.1981L5.2517 13.4992C1.11296 8.00574 0.758483 5.91041 3.50262 3.17304C5.59149 1.08933 8.42577 0.816554 10.5622 2.49312ZM4.81924 3.98127C4.25664 4.54248 3.80646 5.66491 3.80646 6.50698C3.80646 9.81415 7.82164 11.2801 9.8462 8.71193C11.216 6.97525 11.1755 5.42951 9.72416 4.06917C8.25917 2.69669 6.14498 2.65881 4.81924 3.98127ZM8.39741 4.50409C9.75809 5.23049 9.71504 7.80621 8.33006 8.54574C7.51578 8.98016 7.00939 8.9256 6.05129 8.29923C4.5149 7.295 4.46983 5.79827 5.94495 4.76778C7.28031 3.83478 7.16586 3.8469 8.39741 4.50409ZM28.1553 9.42772C29.3448 10.488 29.7945 11.3882 29.9869 13.091C30.2214 15.1636 30.0467 15.6167 27.8489 18.6309C26.5323 20.4368 25.2831 22.1022 25.0724 22.3331C24.5964 22.8549 20.1528 17.166 19.4368 15.1171C17.6816 10.0945 24.1599 5.86697 28.1553 9.42772ZM22.267 10.778C20.7483 12.2924 20.6951 13.531 22.0735 15.2788C24.0905 17.8373 28.1133 16.382 28.1133 13.0935C28.1133 11.3119 26.4123 9.53784 24.7032 9.53784C24.047 9.53784 22.9506 10.096 22.267 10.778ZM26.6853 12.3141C27.1613 13.3557 27.1015 13.7507 26.3429 14.5872C24.6774 16.4229 22.543 15.5632 22.543 13.0572C22.543 11.3685 22.8767 11.0533 24.6637 11.0533C25.714 11.0533 26.267 11.3983 26.6853 12.3141Z" fill="white"/>
</svg>
