<svg width="24" height="24" viewBox="0 0 24 24" fill="none" xmlns="http://www.w3.org/2000/svg">
<path d="M12.9023 11.6391L16.6015 15.3383C16.782 15.5188 16.8722 15.7293 16.8722 15.9699C16.8722 16.2105 16.782 16.4211 16.6015 16.6015C16.4211 16.782 16.2105 16.8722 15.9699 16.8722C15.7293 16.8722 15.5188 16.782 15.3383 16.6015L11.3684 12.6316C11.2682 12.5313 11.198 12.4261 11.1579 12.3158C11.1178 12.2055 11.0977 12.0902 11.0977 11.9699V7.18797C11.0977 6.92732 11.183 6.71178 11.3534 6.54135C11.5238 6.37093 11.7393 6.28571 12 6.28571C12.2607 6.28571 12.4762 6.37093 12.6466 6.54135C12.817 6.71178 12.9023 6.92732 12.9023 7.18797V11.6391ZM1.08271 17.203C0.781955 16.5414 0.541353 15.8496 0.360902 15.1278C0.180451 14.406 0.0601504 13.6642 0 12.9023H1.80451C1.84461 13.5038 1.94486 14.0902 2.10526 14.6617C2.26566 15.2331 2.45614 15.7794 2.67669 16.3008L1.08271 17.203ZM0 11.0977C0.0601504 10.3358 0.185464 9.58897 0.37594 8.85714C0.566416 8.12531 0.81203 7.42857 1.11278 6.76692L2.67669 7.66917C2.43609 8.19048 2.2406 8.73684 2.09023 9.30827C1.93985 9.8797 1.84461 10.4762 1.80451 11.0977H0ZM5.20301 22.015C4.5614 21.5739 3.96491 21.0827 3.41353 20.5414C2.86216 20 2.37594 19.4085 1.95489 18.7669L3.54887 17.8647C3.88972 18.386 4.27569 18.8571 4.70677 19.2782C5.13784 19.6992 5.60401 20.0802 6.10526 20.4211L5.20301 22.015ZM3.54887 6.10526L1.98496 5.20301C2.40601 4.5614 2.88722 3.96992 3.42857 3.42857C3.96992 2.88722 4.5614 2.40601 5.20301 1.98496L6.10526 3.57895C5.60401 3.9198 5.13784 4.30075 4.70677 4.7218C4.27569 5.14286 3.88972 5.60401 3.54887 6.10526ZM11.0977 24C10.3158 23.9398 9.56391 23.8145 8.8421 23.6241C8.1203 23.4336 7.42857 23.188 6.76692 22.8872L7.66917 21.3233C8.19048 21.5639 8.73684 21.7594 9.30827 21.9098C9.8797 22.0601 10.4762 22.1554 11.0977 22.1955V24ZM7.66917 2.67669L6.76692 1.11278C7.42857 0.81203 8.1203 0.566416 8.8421 0.37594C9.56391 0.185464 10.3158 0.0601504 11.0977 0V1.80451C10.4762 1.84461 9.8797 1.93985 9.30827 2.09023C8.73684 2.2406 8.19048 2.43609 7.66917 2.67669ZM12.9023 24V22.1955C13.5238 22.1554 14.1203 22.0601 14.6917 21.9098C15.2632 21.7594 15.8095 21.5639 16.3308 21.3233L17.2331 22.8872C16.5714 23.188 15.8747 23.4336 15.1429 23.6241C14.411 23.8145 13.6642 23.9398 12.9023 24ZM16.3308 2.67669C15.8095 2.43609 15.2632 2.2406 14.6917 2.09023C14.1203 1.93985 13.5238 1.84461 12.9023 1.80451V0C13.6642 0.0601504 14.411 0.180451 15.1429 0.360902C15.8747 0.541353 16.5714 0.79198 17.2331 1.11278L16.3308 2.67669ZM18.797 22.015L17.8947 20.4211C18.396 20.0802 18.8571 19.6992 19.2782 19.2782C19.6992 18.8571 20.0802 18.396 20.4211 17.8947L22.015 18.797C21.594 19.4386 21.1128 20.0301 20.5714 20.5714C20.0301 21.1128 19.4386 21.594 18.797 22.015ZM20.4211 6.10526C20.0802 5.60401 19.6992 5.14286 19.2782 4.7218C18.8571 4.30075 18.396 3.9198 17.8947 3.57895L18.797 1.98496C19.4386 2.40601 20.0251 2.88722 20.5564 3.42857C21.0877 3.96992 21.5639 4.5614 21.985 5.20301L20.4211 6.10526ZM22.1955 11.0977C22.1554 10.4762 22.0551 9.8797 21.8947 9.30827C21.7343 8.73684 21.5338 8.19048 21.2932 7.66917L22.8872 6.76692C23.208 7.42857 23.4586 8.1203 23.6391 8.8421C23.8195 9.56391 23.9398 10.3158 24 11.0977H22.1955ZM22.8872 17.2331L21.3233 16.3308C21.5639 15.8095 21.7594 15.2632 21.9098 14.6917C22.0601 14.1203 22.1554 13.5238 22.1955 12.9023H24C23.9398 13.6842 23.8145 14.4361 23.6241 15.1579C23.4336 15.8797 23.188 16.5714 22.8872 17.2331Z" fill="#696969"/>
</svg>
