<svg width="24" height="24" viewBox="0 0 24 24" fill="none" xmlns="http://www.w3.org/2000/svg">
<path d="M6.05433 10.1527C5.68176 10.1527 5.40233 9.99224 5.21604 9.67141C5.02975 9.35058 5.0401 9.03493 5.24709 8.72445L10.4321 0.43467C10.6184 0.14489 10.8771 0 11.2083 0C11.5395 0 11.7982 0.14489 11.9845 0.43467L17.1695 8.72445C17.3765 9.03493 17.3868 9.35058 17.2005 9.67141C17.0142 9.99224 16.7348 10.1527 16.3622 10.1527H6.05433ZM18.194 24C16.6624 24 15.379 23.4825 14.3441 22.4476C13.3092 21.4127 12.7917 20.1294 12.7917 18.5977C12.7917 17.066 13.3092 15.7827 14.3441 14.7477C15.379 13.7128 16.6624 13.1953 18.194 13.1953C19.7257 13.1953 21.0091 13.7128 22.044 14.7477C23.0789 15.7827 23.5964 17.066 23.5964 18.5977C23.5964 20.1294 23.0789 21.4127 22.044 22.4476C21.0091 23.4825 19.7257 24 18.194 24ZM0.931436 23.2238C0.662354 23.2238 0.439845 23.1358 0.263907 22.9599C0.0879691 22.784 0 22.5614 0 22.2924V14.7167C0 14.4476 0.0879691 14.2251 0.263907 14.0492C0.439845 13.8732 0.662354 13.7853 0.931436 13.7853H8.50711C8.7762 13.7853 8.9987 13.8732 9.17464 14.0492C9.35058 14.2251 9.43855 14.4476 9.43855 14.7167V22.2924C9.43855 22.5614 9.35058 22.784 9.17464 22.9599C8.9987 23.1358 8.7762 23.2238 8.50711 23.2238H0.931436ZM18.194 22.1371C19.1876 22.1371 20.0259 21.7956 20.7089 21.1125C21.392 20.4295 21.7335 19.5912 21.7335 18.5977C21.7335 17.6041 21.392 16.7658 20.7089 16.0828C20.0259 15.3997 19.1876 15.0582 18.194 15.0582C17.2005 15.0582 16.3622 15.3997 15.6792 16.0828C14.9961 16.7658 14.6546 17.6041 14.6546 18.5977C14.6546 19.5912 14.9961 20.4295 15.6792 21.1125C16.3622 21.7956 17.2005 22.1371 18.194 22.1371ZM1.86287 21.3609H7.57568V15.6481H1.86287V21.3609ZM7.73092 8.28978H14.6856L11.2083 2.67012L7.73092 8.28978Z" fill="#696969"/>
</svg>
