<svg width="24" height="24" viewBox="0 0 24 24" fill="none" xmlns="http://www.w3.org/2000/svg">
<path d="M11.966 10.933C11.0382 10.933 10.2495 10.6083 9.60007 9.95884C8.9506 9.30937 8.62586 8.52073 8.62586 7.59292C8.62586 6.66511 8.9506 5.87647 9.60007 5.227C10.2495 4.57753 11.0382 4.2528 11.966 4.2528C12.8938 4.2528 13.6824 4.57753 14.3319 5.227C14.9814 5.87647 15.3061 6.66511 15.3061 7.59292C15.3061 8.52073 14.9814 9.30937 14.3319 9.95884C13.6824 10.6083 12.8938 10.933 11.966 10.933ZM11.966 9.26298C12.4299 9.26298 12.8242 9.10061 13.1489 8.77588C13.4737 8.45114 13.636 8.05682 13.636 7.59292C13.636 7.12901 13.4737 6.73469 13.1489 6.40996C12.8242 6.08522 12.4299 5.92286 11.966 5.92286C11.5021 5.92286 11.1078 6.08522 10.783 6.40996C10.4583 6.73469 10.2959 7.12901 10.2959 7.59292C10.2959 8.05682 10.4583 8.45114 10.783 8.77588C11.1078 9.10061 11.5021 9.26298 11.966 9.26298ZM6.12077 17.6133C5.87954 17.6133 5.68006 17.5344 5.52233 17.3767C5.36461 17.219 5.28574 17.0195 5.28574 16.7783V15.4979C5.28574 15.0154 5.41564 14.5979 5.67542 14.2453C5.93521 13.8928 6.362 13.5587 6.9558 13.2433C7.73517 12.8351 8.54236 12.5335 9.37739 12.3387C10.2124 12.1438 11.0753 12.0464 11.966 12.0464C12.8567 12.0464 13.7196 12.1438 14.5546 12.3387C15.3896 12.5335 16.1968 12.8351 16.9762 13.2433C17.57 13.5587 17.9968 13.8928 18.2565 14.2453C18.5163 14.5979 18.6462 15.0154 18.6462 15.4979V16.7783C18.6462 17.0195 18.5674 17.219 18.4096 17.3767C18.2519 17.5344 18.0524 17.6133 17.8112 17.6133H6.12077ZM11.966 13.7165C11.0753 13.7165 10.2124 13.8371 9.37739 14.0783C8.54236 14.3195 7.73517 14.6814 6.9558 15.1639V15.9432H16.9762V15.1639C16.1968 14.6814 15.3896 14.3195 14.5546 14.0783C13.7196 13.8371 12.8567 13.7165 11.966 13.7165ZM16.8092 0.467324C16.9019 0.244649 17.0643 0.100838 17.2963 0.0358917C17.5282 -0.0290551 17.7555 -0.00585986 17.9782 0.105478C19.24 0.736389 20.3673 1.54359 21.3601 2.52707C22.3528 3.51055 23.1739 4.62392 23.8234 5.86719C23.9348 6.08986 23.9626 6.32182 23.9069 6.56305C23.8513 6.80428 23.7121 6.98984 23.4894 7.11973C23.2853 7.23107 23.0719 7.23571 22.8492 7.13365C22.6265 7.03159 22.4503 6.86922 22.3204 6.64655C21.7637 5.57029 21.0585 4.60536 20.205 3.75178C19.3514 2.89819 18.3864 2.19305 17.3102 1.63637C17.0875 1.52503 16.9251 1.35802 16.8231 1.13535C16.721 0.912674 16.7164 0.689999 16.8092 0.467324ZM7.03931 0.522993C7.15064 0.727111 7.15992 0.940508 7.06714 1.16318C6.97436 1.38586 6.81663 1.55286 6.59396 1.6642C5.49914 2.22089 4.52958 2.92602 3.68527 3.77961C2.84096 4.6332 2.14046 5.6074 1.58377 6.70222C1.47244 6.92489 1.30543 7.07798 1.08276 7.16148C0.860081 7.24499 0.646685 7.23107 0.442566 7.11973C0.219891 6.98984 0.0807196 6.79964 0.0250509 6.54913C-0.0306178 6.29862 0.0064947 6.05275 0.136388 5.81152C0.7673 4.62392 1.55594 3.55694 2.50231 2.61057C3.44868 1.6642 4.51566 0.875561 5.70326 0.244649C5.94449 0.114756 6.195 0.0730042 6.45479 0.119395C6.71457 0.165785 6.90941 0.300318 7.03931 0.522993ZM0.4704 16.9731C0.674519 16.8432 0.887916 16.8339 1.11059 16.9453C1.33327 17.0566 1.50955 17.2329 1.63944 17.4741C2.17757 18.5133 2.85024 19.4457 3.65743 20.2715C4.46463 21.0972 5.3878 21.7792 6.42695 22.3173C6.66818 22.4472 6.84447 22.6235 6.9558 22.8461C7.06714 23.0688 7.07642 23.2915 6.98364 23.5142C6.89086 23.7368 6.71921 23.8853 6.4687 23.9595C6.21819 24.0337 5.97232 24.0059 5.73109 23.876C4.54349 23.2451 3.47651 22.4565 2.53014 21.5101C1.58377 20.5637 0.795135 19.4967 0.164223 18.3091C0.034329 18.0679 -0.00278347 17.8174 0.0528852 17.5576C0.108554 17.2978 0.247726 17.103 0.4704 16.9731ZM23.4894 16.9731C23.7121 17.103 23.8466 17.2978 23.893 17.5576C23.9394 17.8174 23.8976 18.0679 23.7677 18.3091C23.1368 19.4967 22.3482 20.5591 21.4018 21.4962C20.4555 22.4333 19.3885 23.2173 18.2009 23.8482C17.9596 23.9781 17.7138 24.0198 17.4633 23.9734C17.2128 23.927 17.0226 23.7925 16.8927 23.5698C16.7813 23.3657 16.7767 23.1477 16.8787 22.9157C16.9808 22.6838 17.1432 22.5121 17.3659 22.4008C18.4236 21.8441 19.3746 21.1482 20.2189 20.3132C21.0632 19.4782 21.7637 18.5318 22.3204 17.4741C22.4503 17.2514 22.6265 17.0844 22.8492 16.9731C23.0719 16.8618 23.2853 16.8618 23.4894 16.9731ZM11.966 15.9432C12.8567 15.9432 13.7196 15.9432 14.5546 15.9432C15.3896 15.9432 16.1968 15.9432 16.9762 15.9432H6.9558C7.73517 15.9432 8.54236 15.9432 9.37739 15.9432C10.2124 15.9432 11.0753 15.9432 11.966 15.9432Z" fill="black"/>
</svg>
